<?xml version="1.0" standalone="no"?><!DOCTYPE svg PUBLIC "-//W3C//DTD SVG 1.1//EN" "http://www.w3.org/Graphics/SVG/1.1/DTD/svg11.dtd"><svg t="1558592123321" class="icon" style="" viewBox="0 0 1053 1024" version="1.1" xmlns="http://www.w3.org/2000/svg" p-id="2501" xmlns:xlink="http://www.w3.org/1999/xlink" width="205.6640625" height="200"><defs><style type="text/css"></style></defs><path d="M971.648885 725.781034l-8.999064 0c-36.496202 0-65.993132-28.497034-65.993132-63.61838L896.656689 404.564462c0-35.246332 29.49693-63.743367 65.993132-63.743367l8.999064 0c36.496202 0 65.993132 28.497034 65.993132 63.743367L1037.642018 662.162655C1037.642018 697.284 1008.0201 725.781034 971.648885 725.781034L971.648885 725.781034zM788.417953 821.396084l-71.992508 0 0 138.985536c0 35.121345-29.621917 63.61838-66.118119 63.61838l-8.999064 0c-36.496202 0-65.993132-28.497034-65.993132-63.61838L575.31513 821.396084l-111.113437 0 0 138.985536c0 35.121345-29.621917 63.61838-66.118119 63.61838l-8.999064 0c-36.496202 0-66.118119-28.497034-66.118119-63.61838L322.966391 821.396084 259.972946 821.396084c-36.496202 0-65.993132-28.497034-65.993132-63.61838L193.979814 366.943377c0-6.874285 0.249974-13.623582 0.749922-20.247893L853.661164 346.695484c0.499948 6.624311 0.749922 13.498595 0.749922 20.247893l0 390.709341C854.411086 792.89905 824.914155 821.396084 788.417953 821.396084L788.417953 821.396084zM361.087423 100.34612l-55.244251-92.365388c-1.24987-1.999792-0.499948-4.749506 1.624831-5.999376l2.624727-1.374857c2.124779-1.24987 4.874493-0.499948 6.124363 1.624831l55.619212 92.990323c40.74576-18.748049 86.241025-29.246956 134.361018-29.246956l35.996254 0c46.245187 0 90.115622 9.748985 129.486525 27.122178L726.174431 2.23133c1.24987-1.999792 3.999584-2.749714 6.124363-1.624831l2.624727 1.374857c2.124779 1.24987 2.874701 3.874597 1.624831 5.999376l-53.994381 90.115622c87.365908 42.495578 151.109275 123.362162 167.607558 219.602147L198.104384 317.698501C214.227706 223.208334 276.221255 143.466633 361.087423 100.34612L361.087423 100.34612zM672.804985 219.333738c19.12301 0 34.621397-11.62379 34.621397-25.997295 0-14.373504-15.498387-25.997295-34.621397-25.997295-18.998023 0-34.49641 11.62379-34.49641 25.997295C638.308574 207.709947 653.681975 219.333738 672.804985 219.333738L672.804985 219.333738zM366.586851 222.208438c18.998023 0 34.49641-11.748777 34.49641-26.122282 0-14.373504-15.498387-25.997295-34.49641-25.997295-19.12301 0-34.49641 11.62379-34.49641 25.997295C331.965454 210.584648 347.463841 222.208438 366.586851 222.208438L366.586851 222.208438zM88.740765 725.781034l-8.999064 0C43.370487 725.781034 13.748569 697.284 13.748569 662.162655L13.748569 404.564462c0-35.246332 29.621917-63.743367 65.993132-63.743367L88.740765 340.821095c36.496202 0 66.118119 28.497034 66.118119 63.743367L154.858885 662.162655C154.858885 697.284 125.361954 725.781034 88.740765 725.781034L88.740765 725.781034z" p-id="2502" fill="#2AA515"></path></svg>