<?xml version="1.0" standalone="no"?><!DOCTYPE svg PUBLIC "-//W3C//DTD SVG 1.1//EN" "http://www.w3.org/Graphics/SVG/1.1/DTD/svg11.dtd"><svg t="1557217064519" class="icon" style="" viewBox="0 0 1024 1024" version="1.1" xmlns="http://www.w3.org/2000/svg" p-id="2504" xmlns:xlink="http://www.w3.org/1999/xlink" width="200" height="200"><defs><style type="text/css"></style></defs><path d="M726.186667 719.786667c34.56-39.424 51.626667-97.194667 51.626666-161.365334V276.394667a25.770667 25.770667 0 0 0-25.685333-25.685334H370.346667a25.770667 25.770667 0 0 0-25.685334 25.685334v360.789333L674.133333 675.242667l52.053334 44.544z" fill="#409EFF" p-id="2505" data-spm-anchor-id="a313x.7781069.0.i9" class="selected"></path><path d="M683.52 359.082667H438.954667c-18.773333 0-34.133333-15.36-34.133334-34.133334s15.36-34.133333 34.133334-34.133333H683.52c18.773333 0 34.133333 15.36 34.133333 34.133333s-15.36 34.133333-34.133333 34.133334zM619.52 505.6H438.954667c-18.773333 0-34.133333-15.36-34.133334-34.133333s15.36-34.133333 34.133334-34.133334H619.52c18.773333 0 34.133333 15.36 34.133333 34.133334s-15.36 34.133333-34.133333 34.133333z" fill="#333C4F" p-id="2506"></path><path d="M814.762667 130.816H307.712c-37.632 0-68.266667 30.634667-68.266667 68.266667v427.093333c-56.832 13.994667-98.474667 58.368-98.474666 110.848v40.704c0 63.658667 61.269333 115.456 136.533333 115.456h337.237333c162.986667 0 268.288-125.354667 268.288-319.488v-374.613333c0-37.632-30.634667-68.266667-68.266666-68.266667zM277.504 824.917333c-36.352 0-68.266667-22.101333-68.266667-47.189333v-40.704c0-25.6 31.232-47.189333 68.266667-47.189333h222.208a127.744 127.744 0 0 0 9.301333 135.082666H375.978667 277.504z m335.616-14.762666c-33.194667 0-60.16-26.965333-60.16-60.16s26.965333-60.16 60.16-60.16S673.28 716.8 673.28 749.994667c0 33.109333-26.965333 60.16-60.16 60.16z m201.642667-236.458667c0 78.592-22.016 160.597333-77.568 208.725333 2.730667-10.410667 4.352-21.248 4.352-32.512 0-70.826667-57.6-128.426667-128.426667-128.426666H307.712v-422.4h507.050667v374.613333z" fill="#333C4F" p-id="2507"></path></svg>