<?xml version="1.0" standalone="no"?><!DOCTYPE svg PUBLIC "-//W3C//DTD SVG 1.1//EN" "http://www.w3.org/Graphics/SVG/1.1/DTD/svg11.dtd"><svg t="1557218293914" class="icon" style="" viewBox="0 0 1024 1024" version="1.1" xmlns="http://www.w3.org/2000/svg" p-id="3694" xmlns:xlink="http://www.w3.org/1999/xlink" width="200" height="200"><defs><style type="text/css"></style></defs><path d="M354.133333 784.042667s34.816 45.226667 157.866667 45.226666 155.989333-45.226667 155.989333-45.226666l-52.48-41.984H389.546667l-35.413334 41.984z" fill="#409EFF" p-id="3695" data-spm-anchor-id="a313x.7781069.0.i27" class="selected"></path><path d="M512 493.056m-233.813333 0a233.813333 233.813333 0 1 0 467.626666 0 233.813333 233.813333 0 1 0-467.626666 0Z" fill="#409EFF" p-id="3696" data-spm-anchor-id="a313x.7781069.0.i25" class="selected"></path><path d="M425.984 464.213333h-7.424c-18.773333 0-34.133333-15.36-34.133333-34.133333v-45.312c0-18.773333 15.36-34.133333 34.133333-34.133333h7.424c18.773333 0 34.133333 15.36 34.133333 34.133333v45.312c0 18.773333-15.36 34.133333-34.133333 34.133333zM605.44 464.213333h-7.424c-18.773333 0-34.133333-15.36-34.133333-34.133333v-45.312c0-18.773333 15.36-34.133333 34.133333-34.133333h7.424c18.773333 0 34.133333 15.36 34.133333 34.133333v45.312c0 18.773333-15.36 34.133333-34.133333 34.133333z" fill="#333C4F" p-id="3697"></path><path d="M700.672 719.189333c92.16-61.269333 153.088-166.058667 153.088-284.757333 0-188.416-153.344-341.76-341.76-341.76S170.24 246.016 170.24 434.432c0 118.698667 60.928 223.488 153.088 284.757333a160.085333 160.085333 0 0 0-30.464 21.504c-38.997333 35.328-58.709333 87.978667-58.709333 156.416 0 18.858667 15.274667 34.133333 34.133333 34.133334s34.133333-15.274667 34.133333-34.133334c0-48.128 12.032-83.541333 35.84-105.472 32.768-30.122667 79.530667-26.88 80.810667-26.709333 2.048 0.170667 4.096 0.170667 6.058667 0a342.016 342.016 0 0 0 173.482666 0c2.133333 0.170667 4.266667 0.256 6.4 0 0.512 0 47.104-3.669333 80.213334 26.282667 24.064 21.845333 36.266667 57.429333 36.266666 105.898666 0 18.858667 15.274667 34.133333 34.133334 34.133334s34.133333-15.274667 34.133333-34.133334c0-68.522667-19.712-121.088-58.709333-156.416a156.945067 156.945067 0 0 0-30.378667-21.504zM238.506667 434.432c0-150.784 122.709333-273.493333 273.493333-273.493333s273.493333 122.709333 273.493333 273.493333S662.784 707.925333 512 707.925333 238.506667 585.216 238.506667 434.432z" fill="#333C4F" p-id="3698"></path></svg>