<?xml version="1.0" standalone="no"?><!DOCTYPE svg PUBLIC "-//W3C//DTD SVG 1.1//EN" "http://www.w3.org/Graphics/SVG/1.1/DTD/svg11.dtd"><svg t="1557220625920" class="icon" style="" viewBox="0 0 1024 1024" version="1.1" xmlns="http://www.w3.org/2000/svg" p-id="5576" xmlns:xlink="http://www.w3.org/1999/xlink" width="200" height="200"><defs><style type="text/css"></style></defs><path d="M416.085333 917.077333c-168.874667 0-296.192-69.376-296.192-161.450666 0-48.469333 34.901333-91.733333 98.304-121.856 17.066667-8.106667 37.376-0.853333 45.482667 16.213333 8.106667 17.066667 0.853333 37.376-16.213333 45.482667-37.205333 17.664-59.392 40.192-59.392 60.16 0 38.912 86.698667 93.184 227.925333 93.184s227.925333-54.272 227.925333-93.184c0-21.333333-25.685333-45.738667-67.072-63.658667-17.322667-7.509333-25.258667-27.562667-17.749333-44.885333s27.562667-25.258667 44.885333-17.749334c68.778667 29.781333 108.202667 75.861333 108.202667 126.293334 0.085333 92.074667-127.232 161.450667-296.106667 161.450666z" fill="#333C4F" p-id="5577"></path><path d="M905.216 244.309333a34.0736 34.0736 0 0 0-23.210667-22.954666L488.96 108.202667a33.937067 33.937067 0 0 0-28.330667 4.437333c-8.362667 5.546667-13.824 14.506667-14.933333 24.490667l-12.8 111.104-19.968 173.141333-6.144 53.248-29.952 260.437333a34.133333 34.133333 0 0 0 30.037333 37.802667c1.365333 0.170667 2.645333 0.256 3.925334 0.256 17.066667 0 31.829333-12.8 33.877333-30.208l25.685333-222.805333 325.973334 71.936c2.474667 0.512 4.949333 0.768 7.338666 0.768 9.216 0 18.176-3.754667 24.661334-10.581334 8.277333-8.618667 11.349333-20.906667 8.277333-32.426666l-41.045333-152.576 102.997333-120.917334c7.509333-8.789333 10.069333-20.906667 6.656-32zM731.818667 366.421333c-7.338667 8.533333-9.898667 20.138667-6.997334 31.061334l31.061334 115.626666-277.845334-61.269333 30.72-266.837333 303.445334 87.296-80.384 94.122666z" fill="#333C4F" p-id="5578"></path><path d="M524.885333 418.389333l20.565334-178.432 191.317333 55.04-63.573333 74.496 23.296 86.784z" fill="#409EFF" p-id="5579" data-spm-anchor-id="a313x.7781069.0.i49" class="selected"></path></svg>