<?xml version="1.0" standalone="no"?><!DOCTYPE svg PUBLIC "-//W3C//DTD SVG 1.1//EN" "http://www.w3.org/Graphics/SVG/1.1/DTD/svg11.dtd"><svg t="1557217806401" class="icon" style="" viewBox="0 0 1024 1024" version="1.1" xmlns="http://www.w3.org/2000/svg" p-id="3465" xmlns:xlink="http://www.w3.org/1999/xlink" width="200" height="200"><defs><style type="text/css"></style></defs><path d="M524.970667 909.397333c-26.197333 0-52.48-9.984-72.448-29.952L165.034667 592.042667c-42.24-42.24-59.392-102.058667-46.08-160.170667l35.669333-220.672a68.113067 68.113067 0 0 1 56.490667-56.490667l220.672-35.669333c58.112-13.312 117.930667 3.84 160.170666 46.08l287.488 287.488c19.370667 19.370667 29.952 45.056 29.952 72.448s-10.666667 53.077333-29.952 72.448L597.333333 879.445333a102.016 102.016 0 0 1-72.362666 29.952z m-54.442667-726.528c-8.021333 0-16.128 0.938667-24.234667 2.816l-2.389333 0.512-221.781333 35.925334-36.437334 224.170666c-8.362667 35.328 1.962667 71.765333 27.648 97.450667l287.488 287.488c12.885333 12.885333 35.413333 12.885333 48.298667 0L831.146667 549.12c6.485333-6.485333 9.984-15.018667 9.984-24.149333s-3.584-17.664-9.984-24.149334L543.744 213.333333c-19.882667-19.797333-46.08-30.464-73.216-30.464z" fill="#333C4F" p-id="3466"></path><path d="M243.541333 513.536a60.8768 60.8768 0 0 1-16.298666-57.429333l0.597333-2.730667 31.402667-194.133333 194.133333-31.402667 2.730667-0.597333c4.608-1.109333 9.386667-1.621333 14.08-1.621334 16.384 0 31.744 6.4 43.349333 17.92l255.146667 255.146667c14.506667 14.506667 14.506667 38.058667 0 52.565333L551.168 768.768c-14.506667 14.506667-38.058667 14.506667-52.565333 0L243.541333 513.536z" fill="#409EFF" p-id="3467" data-spm-anchor-id="a313x.7781069.0.i22" class="selected"></path><path d="M381.013333 483.413333c-26.197333 0-52.48-9.984-72.448-29.952-39.936-39.936-39.936-104.874667 0-144.810666s104.874667-39.936 144.810667 0 39.936 104.874667 0 144.810666c-19.882667 19.968-46.08 29.952-72.362667 29.952z m0-136.448a34.116267 34.116267 0 0 0-24.149333 58.282667c13.312 13.312 34.986667 13.312 48.298667 0s13.312-34.986667 0-48.298667c-6.656-6.656-15.36-9.984-24.149334-9.984zM630.528 436.224L437.418667 629.333333a34.2016 34.2016 0 0 1-48.298667 0 34.2016 34.2016 0 0 1 0-48.298666l193.109333-193.109334a34.2016 34.2016 0 0 1 48.298667 0c13.226667 13.312 13.226667 35.072 0 48.298667zM637.354667 612.096L528.810667 720.725333a34.2016 34.2016 0 0 1-48.298667 0 34.2016 34.2016 0 0 1 0-48.298666l108.629333-108.629334a34.2016 34.2016 0 0 1 48.298667 0 34.1248 34.1248 0 0 1-0.085333 48.298667z" fill="#333C4F" p-id="3468"></path></svg>