<?xml version="1.0" standalone="no"?><!DOCTYPE svg PUBLIC "-//W3C//DTD SVG 1.1//EN" "http://www.w3.org/Graphics/SVG/1.1/DTD/svg11.dtd"><svg t="1557220346578" class="icon" style="" viewBox="0 0 1024 1024" version="1.1" xmlns="http://www.w3.org/2000/svg" p-id="4429" xmlns:xlink="http://www.w3.org/1999/xlink" width="200" height="200"><defs><style type="text/css"></style></defs><path d="M415.402667 621.141333c-13.226667 0-23.978667-10.752-23.978667-23.978666V443.733333c0-127.914667 57.856-181.674667 120.576-226.730666C581.632 266.154667 632.576 315.904 632.576 443.733333v153.429334c0 13.226667-10.752 23.978667-23.978667 23.978666H415.402667z" fill="#409EFF" p-id="4430" data-spm-anchor-id="a313x.7781069.0.i35" class="selected"></path><path d="M856.661333 541.269333l-118.101333-78.165333V443.733333c0-157.952-128.597333-284.16-183.893333-331.093333a65.6896 65.6896 0 0 0-85.333334 0C414.037333 159.658667 285.44 285.781333 285.44 443.733333v19.285334l-118.101333 78.250666a65.9456 65.9456 0 0 0-29.610667 55.04v64.768c0 36.437333 29.610667 66.048 66.048 66.048H819.968c36.437333 0 66.048-29.610667 66.048-66.048v-64.768c0.170667-22.186667-10.837333-42.752-29.354667-55.04zM285.44 658.858667h-79.445333v-61.354667l79.445333-52.565333v113.92z m68.266667 0V443.733333c0-128.085333 109.482667-236.032 158.293333-277.76 48.810667 41.728 157.952 149.418667 158.293333 277.248V658.773333l-316.586666 0.085334z m464.213333 0h-79.36V544.938667l79.36 52.565333v61.354667z" fill="#333C4F" p-id="4431"></path><path d="M513.194667 505.6c-54.016 0-97.962667-43.946667-97.962667-97.962667s43.946667-97.962667 97.962667-97.962666 97.962667 43.946667 97.962666 97.962666-43.946667 97.962667-97.962666 97.962667z m0-127.744c-16.384 0-29.696 13.312-29.696 29.696s13.312 29.696 29.696 29.696 29.696-13.312 29.696-29.696-13.312-29.696-29.696-29.696zM512 927.061333c-17.578667 0-31.914667-14.336-31.914667-31.914666V767.402667c0-17.578667 14.336-31.914667 31.914667-31.914667 17.578667 0 31.914667 14.336 31.914667 31.914667v127.744c0 17.493333-14.336 31.914667-31.914667 31.914666zM386.304 876.458667c-17.578667 0-31.914667-14.336-31.914667-31.914667v-52.224c0-17.578667 14.336-31.914667 31.914667-31.914667 17.578667 0 31.914667 14.336 31.914667 31.914667v52.224c0 17.493333-14.336 31.914667-31.914667 31.914667zM637.696 876.458667c-17.578667 0-31.914667-14.336-31.914667-31.914667v-52.224c0-17.578667 14.336-31.914667 31.914667-31.914667 17.578667 0 31.914667 14.336 31.914667 31.914667v52.224c0.085333 17.493333-14.336 31.914667-31.914667 31.914667z" fill="#333C4F" p-id="4432"></path></svg>