<?xml version="1.0" standalone="no"?><!DOCTYPE svg PUBLIC "-//W3C//DTD SVG 1.1//EN" "http://www.w3.org/Graphics/SVG/1.1/DTD/svg11.dtd"><svg t="1557220952790" class="icon" style="" viewBox="0 0 1024 1024" version="1.1" xmlns="http://www.w3.org/2000/svg" p-id="6996" xmlns:xlink="http://www.w3.org/1999/xlink" width="200" height="200"><defs><style type="text/css"></style></defs><path d="M387.925333 374.613333h261.888c10.496 0 18.346667 9.728 16.213334 19.968l-81.92 385.962667c-1.621333 7.68-8.362667 13.141333-16.213334 13.141333H278.784c-11.008 0-18.944-10.496-15.957333-21.077333l109.226666-385.962667c1.962667-7.082667 8.533333-12.032 15.872-12.032z" fill="#409EFF" p-id="6997" data-spm-anchor-id="a313x.7781069.0.i70" class="selected"></path><path d="M549.888 282.624h-14.421333c-18.858667 0-34.133333-15.274667-34.133334-34.133333s15.274667-34.133333 34.133334-34.133334h14.421333c18.858667 0 34.133333 15.274667 34.133333 34.133334s-15.274667 34.133333-34.133333 34.133333z" fill="#333C4F" p-id="6998"></path><path d="M901.290667 791.466667L802.474667 242.432c-0.085333-0.426667-0.256-0.853333-0.341334-1.365333-0.256-1.024-0.512-1.962667-0.853333-2.986667-0.426667-1.365333-0.938667-2.645333-1.450667-3.925333-0.426667-0.853333-0.853333-1.621333-1.28-2.474667-0.768-1.365333-1.536-2.56-2.474666-3.754667-0.341333-0.426667-0.512-0.853333-0.853334-1.28l-0.768-0.768c-1.024-1.194667-2.218667-2.218667-3.413333-3.242666-0.597333-0.512-1.194667-1.109333-1.877333-1.536-1.365333-1.024-2.816-1.877333-4.352-2.645334-0.597333-0.256-1.109333-0.682667-1.621334-0.938666-4.266667-1.962667-8.96-3.072-13.824-3.072-0.170667 0-0.256-0.085333-0.426666-0.085334H716.8c-18.858667 0-34.133333 15.274667-34.133333 34.133334s15.274667 34.133333 34.133333 34.133333h11.008L626.773333 822.442667H201.728l156.416-539.818667h3.669333c18.858667 0 34.133333-15.274667 34.133334-34.133333s-15.274667-34.133333-34.133334-34.133334h-29.269333c-15.189333 0-28.586667 10.069333-32.768 24.661334L123.477333 847.104c-2.986667 10.325333-0.938667 21.418667 5.461334 30.037333 6.485333 8.533333 16.554667 13.653333 27.306666 13.653334h498.773334a34.048 34.048 0 0 0 33.536-27.818667l5.888-31.402667c0.597333 0 1.194667 0.170667 1.792 0.170667h171.434666c10.154667 0 19.712-4.522667 26.197334-12.202667 6.485333-7.850667 9.216-18.090667 7.424-28.074666z m-194.048-28.074667l61.013333-325.802667 58.624 325.802667H707.242667z" fill="#333C4F" p-id="6999"></path><path d="M434.090667 350.464c-2.56 0-5.12-0.256-7.765334-0.853333a34.133333 34.133333 0 0 1-25.514666-40.96l34.645333-148.906667a34.133333 34.133333 0 0 1 40.96-25.514667 34.133333 34.133333 0 0 1 25.514667 40.96l-34.645334 148.906667a34.133333 34.133333 0 0 1-33.194666 26.368zM619.178667 350.464c-2.56 0-5.12-0.256-7.765334-0.853333a34.133333 34.133333 0 0 1-25.514666-40.96l34.645333-148.906667a34.133333 34.133333 0 0 1 40.96-25.514667 34.133333 34.133333 0 0 1 25.514667 40.96l-34.645334 148.906667a34.133333 34.133333 0 0 1-33.194666 26.368zM424.533333 761.856h-19.541333c-10.837333 0-18.090667-11.093333-13.653333-20.992L501.248 492.373333h-45.738667l-3.157333 21.248a19.908267 19.908267 0 0 1-19.626667 16.981334H417.28c-12.117333 0-21.418667-10.752-19.626667-22.784l8.533334-57.6a14.506667 14.506667 0 0 1 14.336-12.373334h130.218666c8.618667 0 15.189333 7.594667 13.909334 16.128l-5.12 34.730667-114.688 259.84c-3.498667 8.106667-11.52 13.312-20.309334 13.312z" fill="#333C4F" p-id="7000"></path></svg>