<?xml version="1.0" standalone="no"?><!DOCTYPE svg PUBLIC "-//W3C//DTD SVG 1.1//EN" "http://www.w3.org/Graphics/SVG/1.1/DTD/svg11.dtd"><svg t="1557220795324" class="icon" style="" viewBox="0 0 1024 1024" version="1.1" xmlns="http://www.w3.org/2000/svg" p-id="6263" xmlns:xlink="http://www.w3.org/1999/xlink" width="200" height="200"><defs><style type="text/css"></style></defs><path d="M782.592 784.042667H320.512V321.962667h203.264c39.424 0 110.250667-12.373333 110.250667 24.576C619.349333 490.666667 610.474667 471.893333 758.613333 471.893333c15.36 33.109333 23.893333 69.973333 23.893334 108.8l0.085333 203.349334z" fill="#409EFF" p-id="6264" data-spm-anchor-id="a313x.7781069.0.i58" class="selected"></path><path d="M626.944 215.125333H288.341333v-57.344c0-18.858667-15.274667-34.133333-34.133333-34.133333s-34.133333 15.274667-34.133333 34.133333v57.344h-67.157334c-18.858667 0-34.133333 15.274667-34.133333 34.133334s15.274667 34.133333 34.133333 34.133333h67.072v514.218667c0 56.576 46.08 102.656 102.656 102.656h548.352c18.858667 0 34.133333-15.274667 34.133334-34.133334V493.397333c0.085333-153.429333-124.757333-278.272-278.186667-278.272zM288.341333 797.610667V283.392h338.688c115.797333 0 210.005333 94.208 210.005334 210.005333v338.688H322.730667c-19.029333 0-34.389333-15.445333-34.389334-34.474666z" fill="#333C4F" p-id="6265"></path><path d="M788.224 538.88H686.165333c-66.218667 0-120.064-53.845333-120.064-120.064V331.946667c0-18.858667 15.274667-34.133333 34.133334-34.133334s34.133333 15.274667 34.133333 34.133334v86.869333c0 28.586667 23.210667 51.797333 51.797333 51.797333h102.058667c18.858667 0 34.133333 15.274667 34.133333 34.133334s-15.274667 34.133333-34.133333 34.133333z" fill="#333C4F" p-id="6266"></path></svg>