<?xml version="1.0" standalone="no"?><!DOCTYPE svg PUBLIC "-//W3C//DTD SVG 1.1//EN" "http://www.w3.org/Graphics/SVG/1.1/DTD/svg11.dtd"><svg t="1557220558060" class="icon" style="" viewBox="0 0 1024 1024" version="1.1" xmlns="http://www.w3.org/2000/svg" p-id="5118" xmlns:xlink="http://www.w3.org/1999/xlink" width="200" height="200"><defs><style type="text/css"></style></defs><path d="M291.84 627.882667V341.248c0-15.36 18.005333-25.770667 34.56-20.138667l109.653333 37.546667c9.557333 3.242667 15.872 11.264 15.872 20.138667v293.888c0 15.957333-19.370667 26.368-36.096 19.541333l-109.568-44.8c-8.789333-3.584-14.421333-11.178667-14.421333-19.541333zM732.416 627.882667V341.248c0-15.36-18.005333-25.770667-34.56-20.138667l-109.653333 37.546667c-9.557333 3.242667-15.872 11.264-15.872 20.138667v293.888c0 15.957333 19.370667 26.368 36.096 19.541333l109.653333-44.8c8.704-3.584 14.336-11.178667 14.336-19.541333z" fill="#409EFF" p-id="5119" data-spm-anchor-id="a313x.7781069.0.i44" class="selected"></path><path d="M891.648 260.778667l-64.938667-11.008V203.946667c0-11.349333-5.632-21.930667-15.018666-28.245334s-21.248-7.68-31.829334-3.413333L512.085333 278.869333 244.309333 172.117333c-10.496-4.181333-22.442667-2.901333-31.829333 3.413334s-15.018667 16.896-15.018667 28.245333v45.824l-64.938666 11.008a34.1504 34.1504 0 0 0-28.416 33.621333v488.362667c0 17.493333 13.312 32.256 30.72 33.962667l373.76 37.376c1.109333 0.085333 2.304 0.170667 3.413333 0.170666s2.304-0.085333 3.413333-0.170666l373.76-37.376a34.218667 34.218667 0 0 0 30.72-33.962667V294.4a33.783467 33.783467 0 0 0-28.245333-33.621333zM546.218667 338.773333l212.138666-84.565333v410.965333L546.218667 766.122667V338.773333z m-280.405334-84.565333l212.138667 84.565333v427.349334L265.813333 665.173333V254.208z m-93.354666 69.034667l25.088-4.266667v367.786667c0 13.141333 7.594667 25.173333 19.456 30.805333l103.253333 49.152-147.797333-14.848V323.242667z m679.338666 428.629333L704 766.634667l103.253333-49.152a34.1504 34.1504 0 0 0 19.456-30.805334v-367.786666l25.088 4.266666v428.714667z" fill="#333C4F" p-id="5120"></path><path d="M601.002667 487.168c-13.738667 0-26.709333-8.362667-31.914667-21.930667-6.741333-17.578667 2.133333-37.376 19.712-44.032l99.754667-38.144c17.664-6.741333 37.376 2.133333 44.032 19.712 6.741333 17.578667-2.133333 37.376-19.712 44.032l-99.754667 38.144c-4.010667 1.450667-8.106667 2.218667-12.117333 2.218667zM601.002667 630.954667c-13.738667 0-26.709333-8.362667-31.914667-21.930667-6.741333-17.578667 2.133333-37.376 19.712-44.032l99.754667-38.144c17.664-6.741333 37.376 2.133333 44.032 19.712 6.741333 17.578667-2.133333 37.376-19.712 44.032l-99.754667 38.144c-4.010667 1.450667-8.106667 2.218667-12.117333 2.218667zM421.802667 487.168c-4.010667 0-8.192-0.682667-12.202667-2.218667l-99.754667-38.144c-17.578667-6.741333-26.453333-26.453333-19.712-44.032s26.453333-26.453333 44.032-19.712l99.754667 38.144a34.133333 34.133333 0 0 1 19.712 44.032 34.013867 34.013867 0 0 1-31.829333 21.930667zM421.802667 630.954667c-4.010667 0-8.192-0.682667-12.202667-2.218667l-99.754667-38.144A34.133333 34.133333 0 0 1 290.133333 546.56a34.133333 34.133333 0 0 1 44.032-19.712l99.754667 38.144a34.133333 34.133333 0 0 1 19.712 44.032 34.013867 34.013867 0 0 1-31.829333 21.930667z" fill="#333C4F" p-id="5121"></path></svg>