<?xml version="1.0" standalone="no"?><!DOCTYPE svg PUBLIC "-//W3C//DTD SVG 1.1//EN" "http://www.w3.org/Graphics/SVG/1.1/DTD/svg11.dtd"><svg t="1557220705987" class="icon" style="" viewBox="0 0 1024 1024" version="1.1" xmlns="http://www.w3.org/2000/svg" p-id="6034" xmlns:xlink="http://www.w3.org/1999/xlink" width="200" height="200"><defs><style type="text/css"></style></defs><path d="M266.069333 584.021333L420.693333 293.376c1.962667-3.669333 5.802667-5.973333 9.898667-5.973333h244.906667c8.362667 0 13.824 8.789333 10.069333 16.298666L540.16 594.346667c-1.877333 3.84-5.802667 6.229333-10.069333 6.229333H275.968c-8.448 0-13.909333-9.130667-9.898667-16.554667z" fill="#409EFF" p-id="6035" data-spm-anchor-id="a313x.7781069.0.i55" class="selected"></path><path d="M907.861333 307.456a34.133333 34.133333 0 0 0-45.738666 15.445333L660.821333 729.6c-11.178667 23.210667-35.157333 38.229333-60.928 38.229333H201.216c-8.618667 0-35.84-12.544-35.84-41.557333 0-12.458667 0.512-18.261333 3.84-26.197333h367.786667c37.888 0 72.021333-21.077333 89.002666-54.954667l167.850667-335.36a83.524267 83.524267 0 0 0-3.669333-81.834667 83.5584 83.5584 0 0 0-71.594667-39.936H384.597333a34.133333 34.133333 0 0 0-30.122666 18.090667L118.272 649.898667c-15.018667 27.306667-21.162667 42.069333-21.162667 76.373333 0 70.741333 61.525333 109.824 104.106667 109.824H599.893333c51.797333 0 99.84-30.122667 122.282667-76.544l201.130667-406.357333a34.133333 34.133333 0 0 0-15.445334-45.738667z m-502.784-51.285333h313.514667c7.68 0 11.776 4.693333 13.482667 7.509333 1.706667 2.816 4.096 8.533333 0.682666 15.445333L564.906667 614.485333a30.976 30.976 0 0 1-27.904 17.237334H205.226667l199.850666-375.552z" fill="#333C4F" p-id="6036"></path><path d="M566.272 372.224H417.194667c-18.858667 0-34.133333-15.274667-34.133334-34.133333s15.274667-34.133333 34.133334-34.133334h149.077333c18.858667 0 34.133333 15.274667 34.133333 34.133334s-15.274667 34.133333-34.133333 34.133333zM557.909333 520.704H344.917333c-18.858667 0-34.133333-15.274667-34.133333-34.133333s15.274667-34.133333 34.133333-34.133334h212.992c18.858667 0 34.133333 15.274667 34.133334 34.133334s-15.274667 34.133333-34.133334 34.133333z" fill="#333C4F" p-id="6037"></path></svg>